<svg width="128" height="128" viewBox="0 0 128 128" fill="none" xmlns="http://www.w3.org/2000/svg">
<rect width="128" height="128" fill="#0037FF"/>
<path d="M61.8267 89.6309C61.8267 89.2728 61.7371 88.9188 61.5581 88.5688C61.3791 88.2189 61.0332 87.8975 60.5205 87.6045C60.016 87.3115 59.2713 87.0633 58.2866 86.8599C57.5542 86.6971 56.8991 86.514 56.3213 86.3105C55.7516 86.1071 55.2715 85.863 54.8809 85.5781C54.4902 85.2933 54.1932 84.9515 53.9897 84.5527C53.7863 84.154 53.6846 83.682 53.6846 83.1367C53.6846 82.6484 53.7904 82.1886 54.002 81.7573C54.2217 81.3179 54.5309 80.9354 54.9297 80.6099C55.3366 80.2762 55.8249 80.0158 56.3945 79.8286C56.9723 79.6414 57.6193 79.5479 58.3354 79.5479C59.3527 79.5479 60.2235 79.7228 60.9478 80.0728C61.6802 80.4146 62.2376 80.8825 62.6201 81.4766C63.0107 82.0706 63.2061 82.742 63.2061 83.4907H61.7534C61.7534 83.035 61.6191 82.6037 61.3506 82.1968C61.0902 81.7899 60.7036 81.4562 60.1909 81.1958C59.6864 80.9354 59.0679 80.8052 58.3354 80.8052C57.5786 80.8052 56.9642 80.9191 56.4922 81.147C56.0202 81.3748 55.6743 81.6637 55.4546 82.0137C55.243 82.3636 55.1372 82.7257 55.1372 83.1001C55.1372 83.3931 55.182 83.6616 55.2715 83.9058C55.3691 84.1418 55.54 84.3615 55.7842 84.5649C56.0365 84.7684 56.3945 84.9596 56.8584 85.1387C57.3223 85.3177 57.9245 85.4927 58.665 85.6636C59.7311 85.8996 60.6019 86.1885 61.2773 86.5303C61.9609 86.8639 62.4655 87.279 62.791 87.7754C63.1165 88.2637 63.2793 88.8577 63.2793 89.5576C63.2793 90.1029 63.1654 90.6034 62.9375 91.0591C62.7096 91.5067 62.38 91.8932 61.9487 92.2188C61.5256 92.5443 61.0129 92.7965 60.4106 92.9756C59.8166 93.1546 59.1493 93.2441 58.4087 93.2441C57.2938 93.2441 56.3498 93.061 55.5767 92.6948C54.8117 92.3205 54.2298 91.8322 53.8311 91.23C53.4404 90.6196 53.2451 89.9727 53.2451 89.2891H54.6978C54.7466 89.9727 54.9622 90.5138 55.3447 90.9126C55.7272 91.3032 56.1951 91.5799 56.7485 91.7427C57.3101 91.9054 57.8634 91.9868 58.4087 91.9868C59.1574 91.9868 59.784 91.877 60.2886 91.6572C60.7931 91.4375 61.1756 91.1486 61.436 90.7905C61.6965 90.4325 61.8267 90.0459 61.8267 89.6309ZM71.458 91.9868C72.0765 91.9868 72.6543 91.8729 73.1914 91.645C73.7367 91.409 74.1842 91.0632 74.5342 90.6074C74.8923 90.1436 75.0957 89.578 75.1445 88.9106H76.5361C76.4954 89.7489 76.2391 90.4976 75.7671 91.1567C75.3032 91.8078 74.6929 92.3205 73.936 92.6948C73.1873 93.061 72.3613 93.2441 71.458 93.2441C70.5384 93.2441 69.7246 93.0773 69.0166 92.7437C68.3167 92.41 67.7308 91.9461 67.2588 91.3521C66.7868 90.7498 66.4287 90.05 66.1846 89.2524C65.9486 88.4468 65.8306 87.5801 65.8306 86.6523V86.1396C65.8306 85.2119 65.9486 84.3493 66.1846 83.5518C66.4287 82.7461 66.7868 82.0462 67.2588 81.4521C67.7308 80.8499 68.3167 80.382 69.0166 80.0483C69.7165 79.7147 70.5262 79.5479 71.4458 79.5479C72.3898 79.5479 73.2362 79.7391 73.9849 80.1216C74.7417 80.5041 75.3439 81.0452 75.7915 81.7451C76.2472 82.445 76.4954 83.2751 76.5361 84.2354H75.1445C75.1038 83.5273 74.9167 82.917 74.583 82.4043C74.2493 81.8916 73.8099 81.4969 73.2646 81.2202C72.7194 80.9435 72.1131 80.8052 71.4458 80.8052C70.6971 80.8052 70.0583 80.9517 69.5293 81.2446C69.0003 81.5295 68.569 81.9242 68.2354 82.4287C67.9098 82.9251 67.6698 83.4948 67.5151 84.1377C67.3605 84.7725 67.2832 85.4398 67.2832 86.1396V86.6523C67.2832 87.3604 67.3564 88.0358 67.5029 88.6787C67.6576 89.3135 67.8976 89.8791 68.2231 90.3755C68.5568 90.8719 68.9881 91.2666 69.5171 91.5596C70.0542 91.8444 70.7012 91.9868 71.458 91.9868ZM87.5103 90.6318V83.8203C87.5103 83.1937 87.38 82.6525 87.1196 82.1968C86.8592 81.741 86.4767 81.3911 85.9722 81.147C85.4676 80.9028 84.8451 80.7808 84.1045 80.7808C83.4209 80.7808 82.8105 80.9028 82.2734 81.147C81.7445 81.383 81.3254 81.7044 81.0161 82.1113C80.715 82.5101 80.5645 82.9536 80.5645 83.4419L79.0996 83.4297C79.0996 82.9333 79.2217 82.4531 79.4658 81.9893C79.71 81.5254 80.0558 81.1104 80.5034 80.7441C80.951 80.3779 81.484 80.089 82.1025 79.8774C82.7292 79.6577 83.4168 79.5479 84.1655 79.5479C85.1095 79.5479 85.9396 79.7065 86.6558 80.0239C87.38 80.3413 87.9456 80.8174 88.3525 81.4521C88.7594 82.0869 88.9629 82.8844 88.9629 83.8447V90.229C88.9629 90.6847 88.9954 91.1567 89.0605 91.645C89.1338 92.1333 89.2355 92.5361 89.3657 92.8535V93H87.8154C87.7178 92.707 87.6405 92.3408 87.5835 91.9014C87.5347 91.4538 87.5103 91.0306 87.5103 90.6318ZM87.8521 85.3096L87.8765 86.4326H85.0078C84.2591 86.4326 83.5877 86.5018 82.9937 86.6401C82.4077 86.7703 81.9113 86.9657 81.5044 87.2261C81.0975 87.4784 80.7842 87.7835 80.5645 88.1416C80.3529 88.4997 80.2471 88.9066 80.2471 89.3623C80.2471 89.8343 80.3651 90.2656 80.6011 90.6562C80.8452 91.0469 81.187 91.3602 81.6265 91.5962C82.0741 91.8241 82.603 91.938 83.2134 91.938C84.0272 91.938 84.7433 91.7874 85.3618 91.4863C85.9884 91.1852 86.5052 90.7905 86.9121 90.3022C87.319 89.814 87.5916 89.2809 87.73 88.7031L88.3647 89.5454C88.259 89.9523 88.0636 90.3714 87.7788 90.8027C87.5021 91.2259 87.14 91.6247 86.6924 91.999C86.2448 92.3652 85.7158 92.6663 85.1055 92.9023C84.5033 93.1302 83.8197 93.2441 83.0547 93.2441C82.1921 93.2441 81.4393 93.0814 80.7964 92.7559C80.1616 92.4303 79.6652 91.9868 79.3071 91.4253C78.9572 90.8556 78.7822 90.2127 78.7822 89.4966C78.7822 88.8455 78.9206 88.2637 79.1973 87.751C79.474 87.2301 79.8727 86.7907 80.3936 86.4326C80.9225 86.0664 81.5573 85.7897 82.2979 85.6025C83.0465 85.4072 83.8848 85.3096 84.8125 85.3096H87.8521ZM94.3218 82.3311V98.0781H92.8569V79.792H94.2241L94.3218 82.3311ZM103.501 86.2739V86.5303C103.501 87.515 103.388 88.4183 103.16 89.2402C102.932 90.0622 102.602 90.7743 102.171 91.3765C101.748 91.9705 101.223 92.4303 100.596 92.7559C99.9696 93.0814 99.2575 93.2441 98.46 93.2441C97.6706 93.2441 96.9666 93.1221 96.3481 92.8779C95.7297 92.6338 95.1966 92.2879 94.749 91.8403C94.3096 91.3846 93.9556 90.8556 93.687 90.2534C93.4266 89.6431 93.2435 88.9757 93.1377 88.2515V84.8701C93.2598 84.0726 93.4591 83.3483 93.7358 82.6973C94.0125 82.0462 94.3665 81.4847 94.7979 81.0127C95.2373 80.5407 95.7581 80.1785 96.3604 79.9263C96.9626 79.674 97.6502 79.5479 98.4233 79.5479C99.229 79.5479 99.9451 79.7065 100.572 80.0239C101.207 80.3332 101.74 80.7848 102.171 81.3789C102.61 81.9648 102.94 82.6729 103.16 83.5029C103.388 84.3249 103.501 85.2485 103.501 86.2739ZM102.037 86.5303V86.2739C102.037 85.5008 101.955 84.7847 101.792 84.1255C101.638 83.4663 101.398 82.8926 101.072 82.4043C100.755 81.9079 100.348 81.5213 99.8516 81.2446C99.3633 80.9679 98.7814 80.8296 98.106 80.8296C97.4061 80.8296 96.8079 80.9476 96.3115 81.1836C95.8232 81.4115 95.4163 81.7166 95.0908 82.0991C94.7653 82.4735 94.509 82.8844 94.3218 83.332C94.1346 83.7796 93.9963 84.2191 93.9067 84.6504V88.5444C94.0614 89.1629 94.3096 89.7367 94.6514 90.2656C94.9932 90.7865 95.4489 91.2056 96.0186 91.5229C96.5964 91.8322 97.3003 91.9868 98.1304 91.9868C98.7977 91.9868 99.3755 91.8485 99.8638 91.5718C100.352 91.2951 100.755 90.9085 101.072 90.4121C101.398 89.9157 101.638 89.3379 101.792 88.6787C101.955 88.0195 102.037 87.3034 102.037 86.5303ZM111.851 93.2441C110.988 93.2441 110.195 93.0854 109.471 92.7681C108.755 92.4507 108.128 92.0031 107.591 91.4253C107.062 90.8475 106.651 90.1639 106.358 89.3745C106.073 88.577 105.931 87.7062 105.931 86.7622V86.2373C105.931 85.2201 106.081 84.3005 106.382 83.4785C106.683 82.6566 107.098 81.9526 107.627 81.3667C108.156 80.7808 108.759 80.3332 109.434 80.0239C110.118 79.7065 110.834 79.5479 111.583 79.5479C112.421 79.5479 113.165 79.6984 113.816 79.9995C114.467 80.2925 115.013 80.7116 115.452 81.2568C115.9 81.7939 116.237 82.4328 116.465 83.1733C116.693 83.9058 116.807 84.7155 116.807 85.6025V86.4937H106.81V85.2485H115.354V85.0776C115.338 84.3371 115.188 83.6453 114.903 83.0024C114.626 82.3514 114.211 81.8224 113.658 81.4155C113.104 81.0086 112.413 80.8052 111.583 80.8052C110.964 80.8052 110.394 80.9354 109.874 81.1958C109.361 81.4562 108.917 81.8306 108.543 82.3188C108.177 82.799 107.892 83.3727 107.688 84.04C107.493 84.6992 107.396 85.4316 107.396 86.2373V86.7622C107.396 87.4946 107.501 88.1782 107.713 88.813C107.933 89.4396 108.242 89.993 108.641 90.4731C109.048 90.9533 109.528 91.3276 110.081 91.5962C110.634 91.8647 111.245 91.999 111.912 91.999C112.693 91.999 113.385 91.8566 113.987 91.5718C114.59 91.2788 115.131 90.819 115.611 90.1924L116.526 90.9004C116.242 91.3236 115.883 91.7142 115.452 92.0723C115.029 92.4303 114.52 92.7152 113.926 92.9268C113.332 93.1383 112.64 93.2441 111.851 93.2441Z" fill="white"/>
<path d="M26.7 72.6C23.9333 72.6 21.3667 72 19 70.8C16.6667 69.5667 14.7833 67.7167 13.35 65.25C11.9167 62.7833 11.2 59.7 11.2 56C11.2 53.2667 11.6167 50.85 12.45 48.75C13.3167 46.6167 14.4833 44.8167 15.95 43.35C17.45 41.8833 19.1333 40.7833 21 40.05C22.9 39.2833 24.8667 38.9 26.9 38.9C29.0667 38.9 31 39.3333 32.7 40.2C34.4333 41.0333 35.8667 42.0333 37 43.2L32.5 48.7C31.7 48 30.8667 47.4333 30 47C29.1667 46.5333 28.2 46.3 27.1 46.3C25.8333 46.3 24.65 46.6833 23.55 47.45C22.4833 48.1833 21.6167 49.25 20.95 50.65C20.3167 52.05 20 53.7333 20 55.7C20 58.7333 20.6333 61.0833 21.9 62.75C23.2 64.3833 24.9 65.2 27 65.2C28.2667 65.2 29.3833 64.9167 30.35 64.35C31.35 63.7833 32.2 63.1333 32.9 62.4L37.4 67.8C36.0333 69.4 34.4333 70.6 32.6 71.4C30.7667 72.2 28.8 72.6 26.7 72.6ZM48.8969 72.6C46.9635 72.6 45.4302 72.2167 44.2969 71.45C43.1969 70.65 42.3969 69.55 41.8969 68.15C41.4302 66.7167 41.1969 65.0667 41.1969 63.2V37.2H49.7969V63.5C49.7969 64.3333 49.9469 64.9167 50.2469 65.25C50.5802 65.55 50.8969 65.7 51.1969 65.7C51.3635 65.7 51.4969 65.7 51.5969 65.7C51.7302 65.6667 51.8969 65.6333 52.0969 65.6L53.0969 71.9C52.6635 72.1 52.0969 72.2667 51.3969 72.4C50.6969 72.5333 49.8635 72.6 48.8969 72.6ZM56.0895 72V47H64.6895V72H56.0895ZM60.3895 43.9C58.9895 43.9 57.8561 43.5167 56.9895 42.75C56.1228 41.95 55.6895 40.9 55.6895 39.6C55.6895 38.3 56.1228 37.2667 56.9895 36.5C57.8561 35.7 58.9895 35.3 60.3895 35.3C61.7895 35.3 62.9228 35.7 63.7895 36.5C64.6561 37.2667 65.0895 38.3 65.0895 39.6C65.0895 40.9 64.6561 41.95 63.7895 42.75C62.9228 43.5167 61.7895 43.9 60.3895 43.9ZM81.7938 72.6C79.4271 72.6 77.2938 72.0833 75.3938 71.05C73.4938 70.0167 71.9771 68.5333 70.8438 66.6C69.7438 64.6333 69.1938 62.2667 69.1938 59.5C69.1938 56.7333 69.8104 54.3833 71.0438 52.45C72.3104 50.4833 73.9604 48.9833 75.9938 47.95C78.0271 46.9167 80.2271 46.4 82.5938 46.4C84.0938 46.4 85.4438 46.6333 86.6438 47.1C87.8771 47.5667 88.9604 48.2 89.8938 49L85.8938 54.5C85.3604 54.0333 84.8771 53.7167 84.4438 53.55C84.0104 53.3833 83.5604 53.3 83.0938 53.3C81.4938 53.3 80.2438 53.8667 79.3438 55C78.4438 56.1 77.9938 57.6 77.9938 59.5C77.9938 61.4 78.4604 62.9167 79.3938 64.05C80.3271 65.15 81.4604 65.7 82.7938 65.7C83.4938 65.7 84.1771 65.55 84.8438 65.25C85.5438 64.9167 86.1938 64.5333 86.7938 64.1L90.0938 69.7C88.8604 70.8 87.4938 71.5667 85.9938 72C84.4938 72.4 83.0938 72.6 81.7938 72.6ZM94.0777 72V37.2H102.478V55.7H102.678L109.578 47H118.878L109.978 57.4L119.378 72H110.078L105.078 63.1L102.478 66V72H94.0777Z" fill="white"/>
</svg>
